# xmcd CD database file
# Copyright (C) 1996 Ti Kan
#
# Track frame offsets:
#	150
#	12287
#	24502
#	36817
#	46930
#	56680
#	66740
#	78220
#	87747
#	99727
#	113250
#	125240
#	135807
#	147812
#	159697
#	173492
# Disc length: 2475 seconds
#
# Revision: 2
# Processed by: cddbd v1.4PL0 Copyright (c) Steve Scherf et al.
# Submitted via: CDCOPY 4.900
#
DISCID=d109a910
DTITLE=Loretta Lynn - Country Music Hall Of Fame Series
DYEAR=1900
DGENRE=
TTITLE0=Success
TTITLE1=Mr. and Mrs. Used To Be
TTITLE2=Blue Kentucky Girl
TTITLE3=You Ain't Woman Enough
TTITLE4=Don't Come Home a Drinkin' (with Lovin' on Your Mind)
TTITLE5=Fist City
TTITLE6=I'm a Honky Tonk Girl
TTITLE7=Your Squaw is On the Warpath
TTITLE8=Wings Upon Your Horns
TTITLE9=Coalminer's Daughter
TTITLE10=After the Fire is Gone
TTITLE11=You're Looking at Country
TTITLE12=One's On the Way
TTITLE13=The Pill
TTITLE14=When the Tingle Becomes a Chill
TTITLE15=Out of My Head and Back in my Bed
EXTD=
EXTT0=
EXTT1=
EXTT2=
EXTT3=
EXTT4=
EXTT5=
EXTT6=
EXTT7=
EXTT8=
EXTT9=
EXTT10=
EXTT11=
EXTT12=
EXTT13=
EXTT14=
EXTT15=
PLAYORDER=
